<svg xmlns="http://www.w3.org/2000/svg" viewBox="-720 -160 2857 2220" role="img" aria-label="Construction of the hysaab mark"><path fill="#111418" fill-opacity=".9" d="M388.8 1500.0 L836.8 1500.0 L448.0 420.0 L0.0 420.0 Z M388.8 1500.0 L836.8 1500.0 L1376.8 0.0 L928.8 0.0 Z"/><path fill="#D1322A" fill-opacity=".9" d="M248.4 1890.0 L696.4 1890.0 L836.8 1500.0 L388.8 1500.0 Z"/><line x1="-700" x2="2117" y1="0" y2="0" stroke="#6F7680" stroke-width="5" stroke-dasharray="22 16"/><text x="-696" y="-22" font-size="64" fill="#6F7680" font-family="JetBrains Mono,monospace">ascender 1500</text><line x1="-700" x2="2117" y1="420" y2="420" stroke="#6F7680" stroke-width="5" stroke-dasharray="22 16"/><text x="-696" y="398" font-size="64" fill="#6F7680" font-family="JetBrains Mono,monospace">x-height 1080</text><line x1="-700" x2="2117" y1="1500" y2="1500" stroke="#6F7680" stroke-width="5" stroke-dasharray="22 16"/><text x="-696" y="1478" font-size="64" fill="#6F7680" font-family="JetBrains Mono,monospace">baseline 0</text><line x1="-700" x2="2117" y1="1890" y2="1890" stroke="#6F7680" stroke-width="5" stroke-dasharray="22 16"/><text x="-696" y="1868" font-size="64" fill="#6F7680" font-family="JetBrains Mono,monospace">descender −390</text><line x1="612.8" x2="612.8" y1="-60" y2="1950" stroke="#D1322A" stroke-width="5" stroke-dasharray="10 12"/><line x1="612.8" y1="1500" x2="223.99999999999994" y2="420" stroke="#D1322A" stroke-width="6"/><line x1="612.8" y1="1500" x2="1152.8" y2="0" stroke="#D1322A" stroke-width="6"/><line x1="612.8" y1="1500" x2="472.4" y2="1890" stroke="#D1322A" stroke-width="6"/><path d="M612.8 980 A 520 520 0 0 0 436.7 1010.7" fill="none" stroke="#D1322A" stroke-width="6"/><path d="M612.8 980 A 520 520 0 0 1 788.9 1010.7" fill="none" stroke="#D1322A" stroke-width="6"/><text x="572.8" y="940" text-anchor="end" font-size="66" fill="#D1322A" font-family="JetBrains Mono,monospace">19.8°</text><text x="652.8" y="940" font-size="66" fill="#D1322A" font-family="JetBrains Mono,monospace">19.8°</text><line x1="-5.684341886080802e-14" x2="447.99999999999994" y1="310" y2="310" stroke="#111418" stroke-width="6"/><line x1="-5.684341886080802e-14" x2="-5.684341886080802e-14" y1="280" y2="340" stroke="#111418" stroke-width="6"/><line x1="447.99999999999994" x2="447.99999999999994" y1="280" y2="340" stroke="#111418" stroke-width="6"/><text x="223.99999999999994" y="284" text-anchor="middle" font-size="64" fill="#111418" font-family="JetBrains Mono,monospace">448</text></svg>